{"title":"Transformers.Prime.Darkness.Rising.2011.DVDRip.XviD-Eko","uid":6913495,"size":1050329548,"categoryP":"video","categoryS":"movies","magnet":"?xt=urn:btih:356ea3f684f5aff63d66a2c3e511f4c40ac9f430&amp;dn=Transformers.Prime.Darkness.Rising.2011.DVDRip.XviD-Eko&amp;tr=udp%3A%2F%2Ftracker.openbittorrent.com%3A80&amp;tr=udp%3A%2F%2Fopen.demonii.com%3A1337&amp;tr=udp%3A%2F%2Ftracker.coppersurfer.tk%3A6969&amp;tr=udp%3A%2F%2Fexodus.desync.com%3A6969","seeders":1,"leechers":0,"uploader":"TvTeam","files":5,"time":1324939293,"description":". \n &lt;a href=&quot;\nhttp://www.torrenting.com&quot; rel=&quot;nofollow&quot; target=&quot;_NEW&quot;&gt;\nhttp://www.torrenting.com&lt;/a&gt;          :     Once &amp; For all ;)\n\n\n               www . Torrenting . Com \n\n(((((((((((((= Enjoy No RAR releases =))))))))))))))))))))\n\n\n...................................NFO:....................................\n\n.http://veryaware.com/2011/12/dvd-review-transformers-prime-darkness-rising/\n\nGeneral\nComplete name                    : Transformers.Prime.Darkness.Rising.2011.DVDRip.XviD.Eko.avi\nFormat                           : AVI\nFormat/Info                      : Audio Video Interleave\nFile size                        : 988 MiB\nDuration                         : 1h 46mn\nOverall bit rate                 : 1 300 Kbps\n\n\nVideo\nID                               : 0\nFormat                           : MPEG-4 Visual\nFormat profile                   : Advanced Simple@L5\nFormat settings, BVOP            : 1\nFormat settings, QPel            : No\nFormat settings, GMC             : No warppoints\nFormat settings, Matrix          : Default (MPEG)\nMuxing mode                      : Packed bitstream\nCodec ID                         : XVID\nCodec ID/Hint                    : XviD\nDuration                         : 1h 46mn\nBit rate                         : 1 162 Kbps\nWidth                            : 680 pixels\nHeight                           : 376 pixels\nDisplay aspect ratio             : 16:9\nFrame rate                       : 23.976 fps\nColor space                      : YUV\nChroma subsampling               : 4:2:0\nBit depth                        : 8 bits\nScan type                        : Progressive\nCompression mode                 : Lossy\nBits/(Pixel*Frame)               : 0.190\nStream size                      : 884 MiB (89%)\nWriting library                  : XviD 1.2.1 (UTC 2008-12-04)\n\nAudio\nID                               : 1\nFormat                           : MPEG Audio\nFormat version                   : Version 1\nFormat profile                   : Layer 3\nMode                             : Joint stereo\nMode extension                   : MS Stereo\nCodec ID                         : 55\nCodec ID/Hint                    : MP3\nDuration                         : 1h 46mn\nBit rate mode                    : Constant\nBit rate                         : 128 Kbps\nChannel(s)                       : 2 channels\nSampling rate                    : 48.0 KHz\nCompression mode                 : Lossy\nStream size                      : 97.3 MiB (10%)\nAlignment                        : Aligned on interleaves\nInterleave, duration             : 42 ms (1.00 video frame)\nInterleave, preload duration     : 504 ms\nWriting library                  : LAME3.97 \nEncoding settings                : -m j -V 4 -q 2 -lowpass 17 -b 128","torrent":{"xt":"urn:btih:356ea3f684f5aff63d66a2c3e511f4c40ac9f430","amp;dn":"Transformers.Prime.Darkness.Rising.2011.DVDRip.XviD-Eko","amp;tr":["udp%3A%2F%2Ftracker.openbittorrent.com%3A80","udp%3A%2F%2Fopen.demonii.com%3A1337","udp%3A%2F%2Ftracker.coppersurfer.tk%3A6969","udp%3A%2F%2Fexodus.desync.com%3A6969"],"infoHash":"356ea3f684f5aff63d66a2c3e511f4c40ac9f430","infoHashBuffer":{"type":"Buffer","data":[53,110,163,246,132,245,175,246,61,102,162,195,229,17,244,196,10,201,244,48]},"announce":[],"urlList":[]}}